# xmcd CD database file
#
# Track frame offsets:
#	150
#	17871
#	36793
#	59869
#	80057
#	102825
#	122329
#	142930
#	159832
#	176188
#	196903
#	226054
#	251604
#	276678
#	287170
#
# Disc length: 4061 seconds
#
# Revision: 0
# Processed by: cddbd v1.5.2PL0 Copyright (c) Steve Scherf et al.
# Submitted via: CDex 1.51
#
DISCID=d60fdb0f
DTITLE=sergio cammariere mp3 - cantautore piccolino
DYEAR=2008
DGENRE=Jazz
TTITLE0=l'amore non si spiga
TTITLE1=tutto quallo che un uomo
TTITLE2=libero nell'aria
TTITLE3=sorella mia
TTITLE4=le porte del sogno
TTITLE5=malgrado poi
TTITLE6=dalla pace del mare lontano
TTITLE7=per ricordarti di me
TTITLE8=cantautore piccolino
TTITLE9=niente
TTITLE10=estate
TTITLE11=nessuna e' come te
TTITLE12=my song
TTITLE13=nord
TTITLE14=le note blu
EXTD=YEAR: 2008
EXTT0=
EXTT1=
EXTT2=
EXTT3=
EXTT4=
EXTT5=
EXTT6=
EXTT7=
EXTT8=
EXTT9=
EXTT10=
EXTT11=
EXTT12=
EXTT13=
EXTT14=
PLAYORDER=
